<?xml version="1.0" encoding="UTF-8" standalone="no"?>
<svg
   xmlns:dc="http://purl.org/dc/elements/1.1/"
   xmlns:cc="http://creativecommons.org/ns#"
   xmlns:rdf="http://www.w3.org/1999/02/22-rdf-syntax-ns#"
   xmlns:svg="http://www.w3.org/2000/svg"
   xmlns="http://www.w3.org/2000/svg"
   id="svg26"
   version="1.1"
   width="472pt"
   viewBox="-44 0 472 472.05023"
   height="472pt">
  <path
     d="m 79.76642,100.86712 c -17.861598,0 -32.336939,14.47679 -32.336939,32.33841 0,17.86158 14.475341,32.3384 32.336939,32.3384 h 2.223875 c 7.036018,-0.0315 14.039505,-0.85886 20.892355,-2.4568 l 7.34551,14.69101 -20.293177,32.45707 c -30.48095,-12.60038 -65.597955,-4.56048 -87.558635,20.05291 -21.960679,24.60709 -25.964877,60.41248 -9.985438,89.2639 15.973131,28.85774 48.444124,44.45921 80.95881,38.90747 32.50838,-5.54545 57.96111,-31.04388 63.46233,-63.56487 h 52.9026 c 1.13057,-0.006 2.2622,-0.15737 3.35485,-0.45416 0.3474,-0.11997 0.68827,-0.26009 1.01671,-0.41166 0.70738,-0.22737 1.38974,-0.51111 2.0466,-0.85849 0.37266,-0.21474 0.69434,-0.52336 1.06067,-0.78231 0.55581,-0.3916 1.07976,-0.82136 1.56608,-1.29506 0.33477,-0.35371 0.64459,-0.73354 0.92881,-1.12512 0.35369,-0.38527 0.68816,-0.7957 0.99767,-1.21888 l 53.70541,-85.8651 13.20698,21.13995 c -29.8367,26.72925 -34.2268,71.86281 -10.09971,103.84064 24.12074,31.98415 68.72387,40.15672 102.62177,18.81499 33.89788,-21.34801 45.80409,-65.09831 27.3867,-100.67625 -18.4111,-35.57796 -61.00606,-51.12211 -98.01141,-35.76796 L 267.32594,174.76463 V 139.6735 h 32.3384 c 3.57486,0 6.46797,2.89166 6.46797,6.46651 0,3.56853 -2.89311,6.46797 -6.46797,6.46797 h -6.46797 c -7.14336,0 -12.93448,5.79257 -12.93448,12.93595 0,7.14338 5.79112,12.93448 12.93448,12.93448 h 6.46797 c 17.86163,0 32.33694,-14.4768 32.33694,-32.3384 0,-17.86161 -14.47531,-32.33694 -32.33694,-32.33694 h -45.27289 c -7.14334,0 -12.93594,5.79111 -12.93594,12.93448 v 38.80638 H 133.03528 L 127.17382,153.821 c 13.06776,-7.20654 24.21544,-17.44477 32.50834,-29.84937 l 1.99093,-2.99446 c 2.6464,-3.96645 2.89796,-9.06938 0.64314,-13.27583 -2.24847,-4.20644 -6.6316,-6.83422 -11.40649,-6.83422 z"
     style="fill:#ffffff;fill-opacity:1;stroke:#fefefe;stroke-width:30.00319355;stroke-miterlimit:4;stroke-dasharray:none;stroke-opacity:1"
     id="path10-7" />
  <metadata
     id="metadata32">
    <rdf:RDF>
      <cc:Work
         rdf:about="">
        <dc:format>image/svg+xml</dc:format>
        <dc:type
           rdf:resource="http://purl.org/dc/dcmitype/StillImage" />
        <dc:title></dc:title>
      </cc:Work>
    </rdf:RDF>
  </metadata>
  <defs
     id="defs30" />
  <path
     style="stroke-width:1.61689"
     id="path10"
     d="m 289.49578,210.23521 -22.16911,-35.47057 v -35.09161 h 32.33785 c 3.57485,0 6.46756,2.89272 6.46756,6.46757 0,3.56853 -2.89271,6.46757 -6.46756,6.46757 h -6.46757 c -7.14337,0 -12.93514,5.79176 -12.93514,12.93514 0,7.14338 5.79177,12.93514 12.93514,12.93514 h 6.46757 c 17.86161,0 32.33784,-14.47625 32.33784,-32.33785 0,-17.86161 -14.47623,-32.33784 -32.33784,-32.33784 h -45.27299 c -7.14336,0 -12.93513,5.79176 -12.93513,12.93514 v 38.80541 H 133.0362 l -5.86123,-11.72247 c 13.06777,-7.20654 24.21548,-17.44475 32.50838,-29.84935 l 1.98952,-2.99377 c 2.6464,-3.96645 2.89904,-9.06976 0.64423,-13.2762 -2.24848,-4.20645 -6.63178,-6.8339 -11.40667,-6.8339 H 79.767169 c -17.861596,0 -32.337842,14.47623 -32.337842,32.33785 0,17.86159 14.476246,32.33784 32.337842,32.33784 h 2.22323 c 7.03602,-0.0315 14.04044,-0.85898 20.893291,-2.45692 l 7.34549,14.69099 -20.293261,32.45783 c -30.480956,-12.60038 -65.597834,-4.56014 -87.5585129,20.05326 -21.9606781,24.60708 -25.9650091,60.4124 -9.98557,89.26382 15.973132,28.85774 48.4436109,44.45822 80.9582949,38.90647 32.508379,-5.54544 57.961799,-31.04307 63.463019,-63.56407 h 52.90269 c 1.13057,-0.006 2.26113,-0.15797 3.35379,-0.45476 0.34739,-0.11997 0.68844,-0.25896 1.01688,-0.41054 0.70739,-0.22737 1.38951,-0.51159 2.04638,-0.85897 0.37264,-0.21474 0.69476,-0.52423 1.06108,-0.78318 0.55581,-0.39159 1.08004,-0.82107 1.56636,-1.29477 0.33477,-0.3537 0.64424,-0.73267 0.92846,-1.12426 0.35369,-0.38527 0.68844,-0.7958 0.99793,-1.21898 l 53.70481,-85.86582 13.20673,21.13961 c -29.83671,26.72925 -34.22633,71.86327 -10.09925,103.8411 24.12075,31.98415 68.72424,40.15704 102.62212,18.81532 33.89789,-21.34802 45.80352,-65.09886 27.38612,-100.67679 -18.4111,-35.57796 -61.00611,-51.12159 -98.01147,-35.76744 z M 79.767169,139.67303 c -3.56853,0 -6.467566,-2.89904 -6.467566,-6.46756 0,-3.57485 2.899036,-6.46757 6.467566,-6.46757 h 41.988671 c -11.54561,8.4192 -25.472361,12.94776 -39.765441,12.93513 z m 18.10793,106.77804 c 5.974941,6.35389 10.238211,14.12256 12.391981,22.57334 H 83.714669 Z M 60.364465,333.7001 C 39.824889,333.97799 21.072723,322.07869 12.57141,303.38337 4.0637761,284.68805 7.4301941,262.73368 21.135895,247.43638 34.841579,232.13906 56.296978,226.39783 75.807059,232.80224 l -26.41345,42.29814 c -2.488495,3.99171 -2.621144,9.01292 -0.341068,13.13095 2.280077,4.11169 6.612831,6.66336 11.311924,6.66336 h 49.902615 c -5.88018,22.77544 -26.381881,38.71698 -49.902615,38.80541 z m 76.448685,-64.67569 c -2.95587,-17.40686 -11.76667,-33.28525 -24.97971,-45.00139 l 13.20671,-21.13961 41.39498,66.141 z m 52.90269,-11.47615 -41.32548,-66.13468 h 82.72046 z m 181.09193,24.41129 c 0.0569,23.26808 -15.42363,43.71294 -37.83906,49.96575 -22.41543,6.25283 -46.24564,-3.22746 -58.2397,-23.16702 -11.99405,-19.93957 -9.20239,-45.4372 6.82759,-62.30721 l 26.47661,42.36132 c 3.78959,6.07597 11.7793,7.92656 17.84897,4.14329 6.07597,-3.7896 7.92656,-11.77932 4.14329,-17.8553 l -26.40083,-42.29814 c 15.68892,-5.22332 32.93155,-2.52639 46.27723,7.23812 13.34567,9.7645 21.13961,25.38394 20.9059,41.91919 z m 0,0" />
</svg>
