<svg height="472pt" viewBox="-44 0 472 472.05023" width="472pt" xmlns="http://www.w3.org/2000/svg"><path d="m201.511719 8.296875c-71.496094-3.671875-138.632813 34.457031-172.097657 97.746094-33.46875 63.285156-27.1875 140.238281 16.097657 197.261719l9.695312 11.816406c2.808594 3.121094 5.753907 6.113281 8.800781 9.03125l128 131.898437 129.054688-132.871093c1.691406-1.65625 3.320312-3.371094 4.945312-5.089844l11.960938-14.039063c41.597656-54.222656 49.71875-127.03125 21.085938-189.085937-28.628907-62.054688-89.292969-103.125-157.542969-106.667969zm0 0" fill="#8aced8"/><path d="m344.007812 192.050781c0 83.945313-68.050781 152-152 152-83.945312 0-152-68.054687-152-152 0-83.949219 68.054688-152 152-152 83.949219 0 152 68.050781 152 152zm0 0" fill="#ffda75"/><path d="m312.007812 208.050781c0 22.089844-17.910156 40-40 40-22.089843 0-40-17.910156-40-40 0-22.09375 17.910157-40 40-40 22.089844 0 40 17.90625 40 40zm0 0" fill="#ffda75"/><path d="m152.007812 208.050781c0 22.089844-17.910156 40-40 40-22.089843 0-40-17.910156-40-40 0-22.09375 17.910157-40 40-40 22.089844 0 40 17.90625 40 40zm0 0" fill="#ffda75"/><path d="m272.007812 256.050781c-26.507812 0-48-21.492187-48-48 0-26.511719 21.492188-48 48-48 26.511719 0 48 21.488281 48 48-.027343 26.5-21.5 47.972657-48 48zm0-80c-17.671874 0-32 14.328125-32 32s14.328126 32 32 32c17.671876 0 32-14.328125 32-32s-14.328124-32-32-32zm0 0" fill="#dc4d41"/><path d="m112.007812 256.050781c-26.507812 0-48-21.492187-48-48 0-26.511719 21.492188-48 48-48 26.511719 0 48 21.488281 48 48-.027343 26.5-21.5 47.972657-48 48zm0-80c-17.671874 0-32 14.328125-32 32s14.328126 32 32 32c17.671876 0 32-14.328125 32-32s-14.328124-32-32-32zm0 0" fill="#dc4d41"/><path d="m272.007812 216.050781c-2.761718.003907-5.328124-1.417969-6.792968-3.761719l-40-64c-.789063-1.269531-1.210938-2.742187-1.207032-4.238281v-32c0-4.417969 3.582032-8 8-8h28c11.046876 0 20 8.953125 20 20s-8.953124 20-20 20h-4c-4.417968 0-8-3.582031-8-8s3.582032-8 8-8h4c2.210938 0 4-1.792969 4-4 0-2.210937-1.789062-4-4-4h-20v21.703125l38.785157 62.054688c1.539062 2.46875 1.621093 5.574218.210937 8.121094-1.410156 2.542968-4.085937 4.121093-6.996094 4.121093zm0 0" fill="#69b0bb"/><path d="m152.007812 152.050781c-3.046874.015625-5.839843-1.699219-7.199218-4.425781l-8-16c-1.976563-3.953125-.371094-8.761719 3.582031-10.734375 3.957031-1.976563 8.761719-.371094 10.738281 3.582031l8 16c1.234375 2.476563 1.105469 5.414063-.34375 7.769532-1.449218 2.355468-4.011718 3.796874-6.777344 3.808593zm0 0" fill="#5d9aa4"/><path d="m125.382812 128.050781h-1.375c-6.628906 0-12-5.375-12-12 0-6.628906 5.371094-12 12-12h44l-1.230468 1.847657c-9.226563 13.839843-24.761719 22.152343-41.394532 22.152343zm0 0" fill="#dc4d41"/><g fill="#ffda75"><path d="m152.007812 456.050781h16v16h-16zm0 0"/><path d="m216.007812 456.050781h16v16h-16zm0 0"/><path d="m248.007812 456.050781h80v16h-80zm0 0"/><path d="m120.007812 456.050781h16v16h-16zm0 0"/><path d="m88.007812 456.050781h16v16h-16zm0 0"/></g><path d="m239.007812 140.179688c-1.410156-2.546876-4.089843-4.128907-7-4.128907h-80c-2.667968.023438-5.152343 1.375-6.617187 3.609375 0 .0625-.125.085938-.167969.148438l-40 64c-1.539062 2.46875-1.621094 5.574218-.210937 8.121094 1.410156 2.542968 4.089843 4.121093 6.996093 4.121093h80c.699219-.003906 1.398438-.097656 2.074219-.28125.214844-.074219.425781-.160156.628907-.253906.4375-.140625.859374-.316406 1.265624-.53125.230469-.132813.429688-.324219.65625-.484375.34375-.242188.667969-.507812.96875-.800781.207032-.21875.398438-.453125.574219-.695313.21875-.238281.425781-.492187.617188-.753906l40-64c1.523437-2.453125 1.605469-5.539062.214843-8.070312zm-112.558593 59.871093 25.558593-40.90625 25.601563 40.90625zm65.597656-7.097656-25.597656-40.902344h51.160156zm0 0" fill="#69b0bb"/><path d="m240.007812 136.050781v-16h4.664063v-16h-12.664063c-4.417968 0-8 3.582031-8 8v24zm0 0" fill="#5d9aa4"/><path d="m260.007812 104.050781h-15.335937v16h15.335937c2.210938 0 4 1.789063 4 4 0 2.207031-1.789062 4-4 4h-4c-4.417968 0-8 3.582031-8 8s3.582032 8 8 8h4c11.046876 0 20-8.953125 20-20s-8.953124-20-20-20zm0 0" fill="#dc4d41"/><path d="m253.71875 163.691406-13.710938-21.9375v-21.703125h20c2.210938 0 4 1.789063 4 4 0 2.207031-1.789062 4-4 4h-4c-4.417968 0-8 3.582031-8 8s3.582032 8 8 8h4c11.046876 0 20-8.953125 20-20s-8.953124-20-20-20h-28c-4.417968 0-8 3.582031-8 8v24h-67.054687l-3.625-7.25c8.082031-4.457031 14.976563-10.789062 20.105469-18.460937l1.230468-1.851563c1.636719-2.453125 1.792969-5.609375.398438-8.210937-1.390625-2.601563-4.101562-4.226563-7.054688-4.226563h-44c-11.046874 0-20 8.953125-20 20s8.953126 20 20 20h1.375c4.351563-.019531 8.683594-.53125 12.921876-1.519531l4.542968 9.085938-12.550781 20.074218c-18.851563-7.792968-40.570313-2.820312-54.152344 12.402344-13.582031 15.21875-16.058593 37.363281-6.175781 55.207031 9.878906 17.847657 29.960938 27.496094 50.070312 24.0625 20.105469-3.429687 35.847657-19.199219 39.25-39.3125h32.71875c.699219-.003906 1.398438-.097656 2.074219-.28125.214844-.074219.425781-.160156.628907-.253906.4375-.140625.859374-.316406 1.265624-.53125.230469-.132813.429688-.324219.65625-.484375.34375-.242188.667969-.507812.96875-.800781.207032-.21875.398438-.453125.574219-.695313.21875-.238281.425781-.492187.617188-.753906l33.214843-53.105469 8.167969 13.074219c-18.453125 16.53125-21.167969 44.445312-6.246093 64.222656 14.917968 19.78125 42.503906 24.835938 63.46875 11.636719 20.964843-13.203125 28.328124-40.261719 16.9375-62.265625-11.386719-22.003906-37.730469-31.617188-60.617188-22.121094zm-129.710938-43.640625c-2.207031 0-4-1.792969-4-4 0-2.210937 1.792969-4 4-4h25.96875c-7.140624 5.207031-15.753906 8.007813-24.59375 8zm11.199219 66.039063c3.695313 3.929687 6.332031 8.734375 7.664063 13.960937h-16.421875zm-23.199219 53.960937c-12.703124.171875-24.300781-7.1875-29.558593-18.75-5.261719-11.5625-3.179688-25.140625 5.296875-34.601562 8.476562-9.460938 21.746094-13.011719 33.8125-9.050781l-16.335938 26.160156c-1.539062 2.46875-1.621094 5.574218-.210937 8.121094 1.410156 2.542968 4.089843 4.121093 6.996093 4.121093h30.863282c-3.636719 14.085938-16.316406 23.945313-30.863282 24zm47.28125-40c-1.828124-10.765625-7.277343-20.585937-15.449218-27.832031l8.167968-13.074219 25.601563 40.90625zm32.71875-7.097656-25.558593-40.902344h51.160156zm112 15.097656c.035157 14.390625-9.539062 27.035157-23.402343 30.902344s-28.601563-1.996094-36.019531-14.328125c-7.417969-12.332031-5.691407-28.101562 4.222656-38.535156l16.375 26.199218c2.34375 3.757813 7.285156 4.902344 11.039062 2.5625 3.757813-2.34375 4.902344-7.285156 2.5625-11.042968l-16.328125-26.160156c9.703125-3.230469 20.367188-1.5625 28.621094 4.476562s13.074219 15.699219 12.929687 25.925781zm0 0"/><path d="m192.007812 32.050781c-88.367187 0-160 71.632813-160 160 0 88.363281 71.632813 160 160 160 88.367188 0 160-71.636719 160-160-.101562-88.324219-71.675781-159.898437-160-160zm0 304c-79.527343 0-144-64.472656-144-144 0-79.53125 64.472657-144 144-144 79.527344 0 144 64.46875 144 144-.09375 79.488281-64.507812 143.90625-144 144zm0 0"/><path d="m344.3125 308.929688c60.585938-78.90625 50.867188-191.019532-22.394531-258.320313-73.257813-67.304687-185.792969-67.5-259.289063-.457031-73.496094 67.046875-83.609375 179.125-23.300781 258.242187l9.960937 12.085938c2.917969 3.25 6 6.402343 8.96875 9.25l128 131.886719c1.503907 1.554687 3.578126 2.433593 5.742188 2.433593s4.238281-.878906 5.742188-2.433593l128.921874-132.765626c1.769532-1.730468 3.472657-3.503906 5.433594-5.601562zm-24.136719 3.671874c-1.542969 1.648438-3.105469 3.28125-4.855469 5l-123.3125 126.960938-122.398437-126.113281c-2.890625-2.800781-5.707031-5.65625-8.160156-8.375l-9.585938-11.625c-40.394531-53.222657-47.164062-124.734375-17.476562-184.59375 29.683593-59.859375 90.707031-97.75 157.523437-97.804688 3.050782 0 6.117188.078125 9.195313.238281 65.210937 3.378907 123.195312 42.585938 150.621093 101.847657 27.425782 59.261719 19.785157 128.839843-19.847656 180.738281zm0 0"/><path d="m152.007812 456.050781h16v16h-16zm0 0"/><path d="m216.007812 456.050781h16v16h-16zm0 0"/><path d="m248.007812 456.050781h80v16h-80zm0 0"/><path d="m120.007812 456.050781h16v16h-16zm0 0"/><path d="m88.007812 456.050781h16v16h-16zm0 0"/></svg>