<?xml version="1.0" encoding="UTF-8"?>
<svg version="1.1" viewBox="0 0 120 120" xmlns="http://www.w3.org/2000/svg">
<g fill="none" fill-rule="evenodd">
<g transform="translate(-332 -456)">
<g transform="translate(332 456)">
<path d="m0 0h120v120h-120v-120z"/>
<path d="m113.38 0h-106.75c-3.6581 0-6.6229 2.9643-6.6229 6.6229v106.75c0 3.6576 2.9648 6.6229 6.6229 6.6229h57.473v-46.47h-15.638v-18.111h15.638v-13.356c0-15.5 9.4667-23.939 23.293-23.939 6.6229 0 12.315 0.49323 13.974 0.71354v16.198l-9.5894 0.0044961c-7.5198 0-8.9757 3.5731-8.9757 8.8165v11.563h17.934l-2.3353 18.111h-15.599v46.47h30.579c3.6576 0 6.6229-2.9652 6.6229-6.6229v-106.75c0-3.6585-2.9652-6.6229-6.6229-6.6229" fill="#fff"/>
</g>
</g>
</g>
</svg>
