<?xml version="1.0" encoding="UTF-8"?>
<svg version="1.1" viewBox="0 0 118 120"
 xmlns="http://www.w3.org/2000/svg"
 xmlns:cc="http://creativecommons.org/ns#"
 xmlns:dc="http://purl.org/dc/elements/1.1/"
 xmlns:rdf="http://www.w3.org/1999/02/22-rdf-syntax-ns#">
<path d="m60 0c-23.455 0-43.746 13.446-53.619 33.055-4.0636 8.1-6.3809 17.263-6.3809 26.945 0 9.6818 2.3172 18.845 6.3809 26.945 9.8727 19.609 30.165 33.055 53.619 33.055 16.2 0 29.782-5.3735 39.709-14.537 11.345-10.445 17.891-25.827 17.891-44.1 0-4.2545-0.38075-8.3442-1.0898-12.271h-56.51v23.209h32.291c-1.3909 7.5-5.6181 13.853-11.973 18.107-5.3727 3.6-12.246 5.7285-20.318 5.7285-15.627 0-28.854-10.555-33.572-24.736-1.2-3.6-1.8828-7.4458-1.8828-11.4s0.68281-7.8004 1.8828-11.4c4.7182-14.182 17.945-24.736 33.572-24.736 8.8091 0 16.717 3.0272 22.936 8.9727l17.209-17.209c-10.391-9.6818-23.972-15.627-40.145-15.627z" fill="#fff" fill-rule="evenodd" stroke="#000" stroke-width=".01"/>
<path d="m0 0h120v120h-120z" fill="none"/>
</svg>
