<?xml version="1.0" encoding="UTF-8"?>
<svg version="1.1" viewBox="0 0 118 120" xmlns="http://www.w3.org/2000/svg">
<g fill="none" fill-rule="evenodd">
<g transform="translate(-332 -639)">
<g transform="translate(332 639)">
<path d="m117.6 61.364c0-4.2545-0.38182-8.3455-1.0909-12.273h-56.509v23.209h32.291c-1.3909 7.5-5.6182 13.855-11.973 18.109v15.055h19.391c11.345-10.445 17.891-25.827 17.891-44.1z" fill="#4285F4"/>
<path d="m60 120c16.2 0 29.782-5.3727 39.709-14.536l-19.391-15.055c-5.3727 3.6-12.245 5.7273-20.318 5.7273-15.627 0-28.855-10.555-33.573-24.736h-20.045v15.545c9.8727 19.609 30.164 33.055 53.618 33.055z" fill="#34A853"/>
<path d="m26.427 71.4c-1.2-3.6-1.8818-7.4455-1.8818-11.4s0.68182-7.8 1.8818-11.4v-15.545h-20.045c-4.0636 8.1-6.3818 17.264-6.3818 26.945s2.3182 18.845 6.3818 26.945l20.045-15.545z" fill="#FBBC05"/>
<path d="m60 23.864c8.8091 0 16.718 3.0273 22.936 8.9727l17.209-17.209c-10.391-9.6818-23.973-15.627-40.145-15.627-23.455 0-43.745 13.445-53.618 33.055l20.045 15.545c4.7182-14.182 17.945-24.736 33.573-24.736z" fill="#EA4335"/>
<path d="m0 0h120v120h-120v-120z"/>
</g>
</g>
</g>
</svg>
